<svg xmlns="http://www.w3.org/2000/svg" viewBox="0 0 512 512" width="512" height="512">
  <rect width="512" height="512" rx="96" fill="#14532D"/>

  <!-- Transfer arrow -->
  <path d="M 48 192 L 264 192 L 264 144 L 336 256 L 264 368 L 264 320 L 48 320 Z" fill="#F0E6CC"/>

  <!-- Two items in the shaft -->
  <rect x="72" y="216" width="80" height="80" rx="12" fill="#14532D"/>
  <rect x="168" y="216" width="80" height="80" rx="12" fill="#14532D"/>

  <!-- FC chest body -->
  <rect x="352" y="144" width="144" height="224" rx="14" fill="#F0E6CC"/>

  <!-- Iron bands (lid seam + base) -->
  <rect x="352" y="200" width="144" height="10" fill="#14532D"/>
  <rect x="352" y="328" width="144" height="10" fill="#14532D"/>

  <!-- Round lock plate -->
  <circle cx="424" cy="270" r="24" fill="#14532D"/>

  <!-- Keyhole -->
  <circle cx="424" cy="262" r="5" fill="#F0E6CC"/>
  <rect x="421" y="262" width="6" height="18" fill="#F0E6CC"/>

  <!-- Corner rivets -->
  <circle cx="368" cy="160" r="5" fill="#14532D"/>
  <circle cx="480" cy="160" r="5" fill="#14532D"/>
  <circle cx="368" cy="352" r="5" fill="#14532D"/>
  <circle cx="480" cy="352" r="5" fill="#14532D"/>
</svg>
